<?xml version="1.0" standalone="no"?>
<!DOCTYPE svg PUBLIC "-//W3C//DTD SVG 20010904//EN"
 "http://www.w3.org/TR/2001/REC-SVG-20010904/DTD/svg10.dtd">
<svg version="1.0" xmlns="http://www.w3.org/2000/svg"
 width="1271.000000pt" height="1581.000000pt" viewBox="0 0 1271.000000 1581.000000"
 preserveAspectRatio="xMidYMid meet">

<g transform="translate(0.000000,1581.000000) scale(0.100000,-0.100000)"
fill="#ffffff" stroke="none">
<path d="M6130 15804 c-1114 -39 -2197 -329 -3165 -849 -268 -144 -366 -202
-605 -360 -395 -261 -724 -529 -1074 -874 -375 -370 -667 -721 -939 -1131
-184 -276 -244 -426 -254 -635 -8 -170 24 -279 108 -370 51 -55 95 -71 234
-85 163 -16 265 -42 413 -102 56 -23 72 -34 69 -47 -3 -9 -39 -88 -80 -177
-147 -312 -260 -616 -358 -959 -50 -175 -57 -258 -23 -263 12 -2 75 27 145 66
171 95 317 168 494 244 150 65 375 152 380 146 1 -2 33 -52 70 -113 137 -223
268 -405 434 -603 104 -124 131 -143 160 -108 6 7 27 69 45 137 123 444 298
831 556 1229 105 162 121 194 150 289 17 56 21 89 18 144 -8 126 -45 172 -218
277 -213 129 -402 284 -475 390 l-28 40 58 67 c105 122 477 487 601 590 118
97 319 253 327 253 2 0 20 -24 40 -54 l36 -54 -59 -115 c-99 -194 -140 -367
-140 -591 0 -178 17 -269 102 -555 60 -202 76 -246 96 -259 44 -29 65 -4 184
223 134 255 177 322 265 409 150 150 417 288 650 335 99 21 128 21 1423 21
1255 0 1322 -1 1317 -17 -6 -23 -1348 -2755 -1358 -2767 -5 -5 -41 6 -86 26
-228 104 -520 153 -768 130 -170 -17 -634 -111 -657 -134 -21 -21 -23 -48 -5
-70 6 -9 112 -75 234 -146 239 -140 311 -191 385 -270 137 -147 273 -428 308
-638 l11 -72 -607 -1248 c-335 -687 -648 -1319 -697 -1404 -151 -262 -408
-638 -554 -809 l-29 -34 -142 107 c-77 59 -206 163 -284 230 -142 123 -439
418 -552 549 -57 65 -59 69 -45 95 26 50 193 207 300 283 58 41 154 103 213
138 59 35 120 80 137 100 60 73 74 189 38 307 -28 90 -52 138 -142 275 -145
222 -278 473 -378 710 -60 142 -168 466 -195 583 -20 87 -45 117 -83 97 -64
-35 -417 -507 -575 -768 -21 -35 -42 -63 -47 -63 -17 0 -238 85 -364 140 -152
67 -403 192 -528 264 -102 59 -116 63 -135 44 -19 -19 -15 -53 24 -198 85
-324 240 -747 386 -1052 42 -87 68 -152 62 -157 -20 -18 -165 -71 -261 -95
-56 -14 -160 -33 -232 -41 -145 -16 -171 -25 -225 -85 -82 -91 -111 -197 -103
-375 9 -210 64 -347 250 -628 527 -792 1214 -1480 2013 -2014 329 -221 874
-513 1224 -657 707 -290 1387 -458 2155 -533 228 -22 963 -25 1180 -5 1176
109 2195 437 3165 1020 911 548 1732 1335 2307 2214 136 207 191 331 218 487
36 204 -1 382 -101 485 -50 51 -85 64 -206 77 -175 17 -335 58 -470 118 l-46
21 68 143 c162 337 303 719 395 1072 61 230 52 238 -150 125 -241 -135 -515
-261 -783 -359 l-77 -29 -88 142 c-178 287 -501 706 -543 706 -29 0 -47 -34
-78 -150 -122 -443 -302 -841 -566 -1249 -105 -163 -112 -177 -139 -265 -29
-95 -28 -195 3 -261 28 -59 58 -89 146 -140 251 -148 455 -315 534 -436 l17
-26 -87 -99 c-123 -139 -389 -401 -525 -516 -150 -128 -341 -277 -355 -278 -6
0 -20 19 -30 42 -10 24 -36 69 -57 102 l-39 59 55 116 c98 206 130 348 131
581 0 194 -9 250 -94 562 -69 251 -80 278 -120 278 -31 0 -49 -27 -166 -245
-64 -121 -135 -247 -157 -280 -144 -215 -467 -410 -757 -454 -55 -9 -432 -11
-1406 -9 l-1331 3 544 1115 c320 654 559 1133 580 1158 80 98 284 247 458 336
135 68 218 91 507 137 145 23 273 48 286 56 15 9 22 23 22 43 0 36 -8 42 -255
198 -202 127 -330 195 -435 232 -36 13 -69 27 -74 31 -8 7 1081 2253 1425
2939 152 303 269 507 417 729 114 172 283 401 296 401 20 0 284 -195 447 -330
198 -164 506 -470 654 -648 l27 -33 -27 -40 c-16 -22 -70 -80 -121 -128 -84
-81 -192 -158 -456 -326 -80 -51 -111 -107 -116 -210 -7 -128 29 -224 161
-426 256 -393 458 -846 567 -1274 27 -103 34 -115 65 -115 53 0 360 390 556
707 62 101 87 132 98 128 9 -4 59 -22 111 -42 238 -89 492 -208 737 -344 212
-118 214 -115 121 220 -87 315 -225 681 -368 979 l-69 143 47 20 c144 63 301
102 470 118 159 15 214 50 273 175 41 87 52 154 46 281 -10 210 -67 352 -251
629 -594 895 -1395 1658 -2321 2211 -173 104 -565 308 -745 388 -778 348
-1612 557 -2455 616 -159 11 -572 20 -715 15z m535 -94 c2016 -98 3867 -1016
5159 -2560 223 -266 498 -650 595 -830 48 -90 86 -218 96 -320 7 -80 -10 -193
-38 -246 -13 -25 -15 -18 -20 97 -4 93 -12 147 -31 214 -59 197 -198 436 -373
638 -84 96 -112 122 -75 70 11 -16 50 -71 87 -123 200 -283 301 -515 312 -717
l6 -103 -37 0 -36 0 0 58 c-1 123 -61 311 -144 447 -49 82 -144 205 -158 205
-3 0 14 -30 39 -67 120 -179 182 -351 190 -530 6 -122 7 -119 -52 -125 -30 -3
-30 -3 -37 63 -13 115 -80 280 -152 378 -34 46 -33 37 9 -51 50 -105 86 -256
83 -342 l-3 -70 -50 -13 c-27 -7 -53 -13 -56 -13 -3 0 -13 26 -23 58 -16 56
-73 168 -81 160 -2 -2 5 -33 16 -68 11 -35 22 -89 25 -120 l6 -55 -42 -17 -41
-17 -19 42 c-10 23 -26 51 -35 62 -16 19 -16 19 -10 -9 26 -119 26 -115 -16
-136 -47 -25 -46 -25 -53 3 -3 12 -19 38 -35 57 l-31 35 14 -40 c31 -94 30
-101 -19 -135 l-44 -31 -30 59 c-16 32 -36 64 -45 71 -13 11 -12 1 4 -56 26
-89 25 -115 -5 -143 -14 -13 -27 -22 -29 -19 -2 2 -11 27 -20 54 -16 51 -86
178 -93 171 -2 -2 7 -46 21 -97 13 -52 27 -115 31 -141 5 -42 3 -50 -24 -80
-33 -36 -31 -38 -51 47 -20 88 -71 205 -122 280 -27 41 -53 77 -58 80 -5 3 6
-27 25 -67 89 -194 133 -431 88 -480 -15 -17 -15 -18 -1 -13 13 5 15 2 11 -17
-6 -24 -31 -58 -43 -58 -4 0 -10 57 -13 128 -4 107 -10 142 -36 222 -66 197
-173 360 -365 554 -137 140 -143 141 -30 6 279 -331 401 -638 350 -878 -21
-102 -49 -147 -131 -209 -120 -91 -214 -107 -323 -52 -79 39 -140 107 -222
247 -34 59 -87 149 -117 199 -56 96 -142 198 -187 222 -55 30 -10 44 47 15 18
-9 51 -32 74 -50 23 -19 44 -34 47 -34 14 0 -20 64 -56 105 -22 25 -38 48 -35
51 10 10 74 -16 117 -47 23 -17 44 -28 47 -25 10 10 -10 49 -45 88 -32 35 -34
41 -20 55 22 21 67 9 120 -32 23 -19 44 -32 46 -30 11 10 -12 59 -43 94 -55
60 -17 71 73 20 30 -17 56 -28 59 -26 8 9 -17 50 -54 88 -28 30 -32 38 -20 47
11 9 23 6 55 -17 22 -16 43 -34 47 -40 3 -6 10 -11 16 -11 19 0 8 40 -27 90
-57 83 -32 69 38 -22 148 -190 288 -408 288 -448 0 -21 -48 -21 -89 -1 -51 27
-56 9 -8 -36 40 -38 68 -53 101 -53 31 0 33 -11 6 -35 -33 -30 -106 -16 -176
33 -32 23 -60 39 -62 37 -6 -6 41 -68 76 -101 39 -37 80 -56 137 -64 l50 -7
-40 -17 c-86 -39 -201 -1 -317 104 -36 33 -69 60 -73 60 -11 0 59 -95 106
-142 50 -50 127 -94 199 -113 l45 -12 -28 -12 c-47 -19 -109 -13 -165 15 -36
18 -83 59 -152 132 -71 75 -100 100 -100 86 0 -61 181 -283 264 -323 50 -25
149 -28 200 -7 89 37 146 129 154 251 8 135 -50 293 -174 473 -348 505 -817
982 -1322 1345 l-130 94 25 31 c13 18 29 32 35 32 26 0 432 -301 648 -480
l135 -112 -130 129 c-71 71 -179 171 -239 222 -101 86 -322 256 -363 279 -20
12 6 43 242 294 121 129 144 158 145 184 0 17 -6 36 -12 42 -14 10 -299 100
-403 126 -200 50 -487 64 -675 33 -108 -18 -242 -55 -330 -91 l-60 -25 -128
192 c-164 248 -162 248 -277 83 -33 -47 -65 -86 -72 -86 -6 0 -47 14 -90 30
-204 79 -573 159 -684 148 -39 -4 230 -79 558 -155 109 -26 200 -48 202 -49 2
-2 -11 -25 -29 -52 l-32 -50 -67 19 c-829 240 -1756 273 -2625 92 l-170 -35
-590 5 c-587 5 -646 9 -786 44 -92 23 -141 45 -257 119 -141 90 -142 90 -215
-51 -157 -303 -193 -658 -94 -930 l24 -66 -82 -61 c-449 -340 -813 -703 -1130
-1125 -220 -294 -285 -422 -294 -589 -6 -115 15 -182 77 -244 72 -71 178 -91
268 -50 97 43 273 258 273 331 0 7 -48 -38 -108 -98 -62 -64 -124 -118 -147
-128 -51 -23 -122 -30 -160 -15 l-30 12 57 18 c31 10 77 29 101 43 50 30 159
142 183 190 16 29 12 27 -41 -21 -143 -131 -246 -168 -343 -125 l-37 16 54 9
c67 10 107 35 166 100 64 72 61 85 -10 33 -76 -56 -150 -71 -187 -38 -26 24
-23 30 24 37 29 5 52 18 80 45 51 51 48 64 -7 40 -58 -26 -89 -18 -80 19 14
55 141 249 282 430 71 91 96 105 39 22 -20 -29 -36 -61 -36 -72 0 -22 4 -20
69 29 35 27 46 31 58 22 12 -10 9 -18 -20 -48 -37 -38 -62 -79 -54 -88 3 -2
29 9 59 26 85 48 130 40 79 -13 -29 -30 -68 -106 -55 -106 3 0 28 16 54 35 58
42 101 53 119 31 11 -14 8 -22 -22 -55 -34 -38 -54 -77 -44 -87 3 -3 24 8 47
25 43 31 107 57 117 47 3 -3 -11 -24 -32 -47 -31 -35 -65 -94 -65 -114 0 -3
24 14 53 38 60 49 109 72 134 63 14 -6 13 -9 -8 -23 -83 -55 -136 -125 -259
-338 -51 -88 -112 -185 -136 -216 -99 -129 -220 -176 -345 -134 -25 9 -76 39
-114 68 -53 40 -77 66 -97 107 -120 239 -9 589 305 967 119 142 121 148 18 48
-211 -205 -340 -397 -404 -601 -32 -100 -51 -234 -43 -296 4 -27 3 -48 -2 -48
-13 0 -39 32 -47 59 -6 20 -5 23 11 17 17 -7 17 -6 -1 13 -16 18 -17 32 -12
113 7 109 41 236 98 358 l39 85 -36 -40 c-48 -55 -129 -223 -154 -319 -11 -44
-22 -81 -24 -83 -2 -3 -16 11 -31 31 -31 41 -30 73 11 220 14 48 23 90 20 93
-11 11 -105 -180 -106 -215 0 -9 -9 -7 -30 8 -36 26 -38 48 -11 143 18 66 18
68 0 51 -11 -10 -31 -41 -45 -70 l-26 -54 -44 32 c-24 17 -44 35 -44 39 0 4 9
36 20 71 11 34 20 65 20 68 -1 10 -41 -46 -61 -83 l-20 -38 -37 22 c-20 12
-38 23 -39 24 -1 0 4 32 12 70 8 38 13 70 11 72 -2 3 -17 -23 -32 -56 -16 -33
-32 -60 -35 -60 -4 -1 -23 6 -43 14 -29 12 -36 21 -36 44 0 27 30 155 46 195
5 14 4 17 -5 11 -17 -10 -79 -141 -87 -183 -5 -24 -11 -32 -22 -27 -8 3 -34
10 -58 16 l-44 11 0 68 c0 86 39 242 85 339 20 41 34 76 31 78 -7 7 -76 -105
-107 -174 -36 -81 -69 -201 -69 -255 0 -38 0 -38 -39 -38 -47 0 -51 8 -51 99
0 167 63 355 177 531 66 102 71 112 28 65 -155 -168 -256 -389 -273 -600 l-7
-80 -34 -3 -34 -3 6 103 c5 109 38 232 97 362 37 83 137 250 214 356 135 186
137 197 13 53 -126 -146 -212 -273 -282 -418 -95 -193 -125 -306 -125 -462 0
-95 -7 -98 -36 -13 -24 72 -24 219 1 315 27 111 92 236 218 422 803 1192 1939
2109 3282 2651 923 372 1967 549 2950 502z m1649 -1748 c71 -108 130 -198 131
-199 1 -2 39 13 86 32 298 121 612 146 945 74 89 -19 401 -112 411 -123 3 -3
-43 -58 -103 -122 -345 -367 -533 -600 -748 -926 -214 -325 -301 -494 -1097
-2123 l-776 -1590 100 -32 c55 -18 139 -52 186 -76 91 -45 514 -307 507 -314
-2 -2 -123 -24 -268 -48 -144 -24 -299 -56 -342 -70 -208 -68 -517 -270 -641
-418 -23 -28 -238 -456 -606 -1208 l-569 -1164 1362 -3 c929 -2 1389 1 1446 8
124 16 244 54 377 120 163 80 236 129 330 224 99 99 142 165 279 424 60 111
111 202 115 202 10 0 133 -469 148 -570 18 -115 12 -352 -10 -455 -33 -146
-81 -273 -152 -396 l-27 -47 40 -58 c106 -158 152 -297 159 -494 8 -213 -27
-372 -130 -588 l-53 -112 -99 67 c-121 81 -215 125 -315 149 -70 17 -192 18
-1885 24 -1669 5 -1817 7 -1898 23 -126 25 -249 63 -332 101 l-72 33 -41 -68
c-22 -37 -85 -128 -139 -203 -75 -104 -101 -132 -110 -123 -11 12 -203 318
-235 377 l-17 31 -68 -34 c-86 -44 -232 -92 -342 -114 -62 -13 -135 -17 -261
-17 -245 0 -360 24 -695 145 l-85 31 112 120 c445 472 722 840 996 1323 28 50
327 658 666 1352 l615 1263 -10 67 c-36 260 -195 575 -370 737 -77 71 -130
107 -366 245 -106 62 -193 116 -193 120 0 4 123 31 273 61 l272 55 195 -1
c162 0 212 -4 297 -22 120 -26 247 -69 358 -122 44 -21 82 -37 86 -35 9 6
1429 2901 1429 2914 0 9 -342 11 -1392 9 l-1393 -3 -115 -31 c-273 -74 -545
-233 -674 -394 -79 -98 -89 -114 -208 -338 -60 -114 -113 -211 -118 -215 -9
-10 -9 -11 -89 258 -72 245 -85 321 -84 500 1 229 58 440 168 622 l45 74 -39
57 c-204 302 -221 689 -44 1068 32 68 61 124 65 124 3 0 54 -29 112 -64 121
-74 183 -99 311 -129 89 -21 110 -21 1865 -27 1353 -5 1793 -9 1849 -19 144
-24 319 -76 451 -135 11 -4 27 13 59 66 50 85 221 328 230 328 3 0 64 -89 135
-198z m-7938 -2138 c18 -5 22 -16 27 -72 4 -37 10 -78 13 -91 11 -39 -13 -16
-41 39 -13 27 -29 67 -34 89 -9 43 -6 46 35 35z m11974 -105 c-11 -30 -30 -65
-41 -79 l-20 -25 7 40 c3 22 9 65 13 95 5 47 9 55 31 60 34 8 37 -20 10 -91z
m-11798 48 c4 -6 8 -28 8 -47 0 -19 4 -50 9 -68 23 -79 -39 -5 -69 84 l-20 56
32 -6 c18 -3 36 -12 40 -19z m11671 -11 c-8 -40 -67 -151 -78 -146 -5 3 -8 10
-6 15 1 6 5 36 9 69 5 53 8 59 36 72 42 18 44 18 39 -10z m-11512 -46 c16 -9
19 -22 19 -72 0 -59 -1 -60 -18 -44 -19 17 -72 116 -72 135 0 11 30 2 71 -19z
m11335 -54 c-14 -29 -35 -61 -46 -71 -20 -18 -20 -18 -20 43 l0 61 43 19 c23
10 44 15 45 10 2 -5 -8 -33 -22 -62z m-11191 -55 c0 -23 -3 -41 -6 -41 -8 0
-49 85 -49 100 0 6 11 5 28 -4 23 -12 27 -21 27 -55z m11049 27 c-10 -34 -32
-76 -44 -83 -6 -4 -10 11 -10 38 0 36 4 46 23 55 33 16 39 14 31 -10z m-10953
-38 c20 -11 28 -70 9 -70 -5 0 -10 2 -10 4 0 2 -7 20 -15 40 -16 39 -14 42 16
26z m10824 -36 c-8 -20 -15 -38 -15 -40 0 -2 -4 -4 -10 -4 -17 0 -11 52 8 66
28 22 33 16 17 -22z m-126 -91 c-20 -32 -23 -34 -30 -17 -13 32 -10 39 19 56
35 22 39 7 11 -39z m-10443 -66 c-3 -12 -6 -29 -6 -37 -1 -29 -30 22 -30 52 0
26 2 28 21 17 15 -8 19 -17 15 -32z m10323 -39 c-13 -23 -13 -23 -23 11 -8 29
-7 36 10 48 17 13 19 12 22 -11 2 -14 -2 -35 -9 -48z m-10216 -22 c12 -10 17
-24 15 -44 -3 -26 -5 -29 -19 -19 -18 13 -36 77 -22 77 4 0 16 -7 26 -14z
m10109 -29 c-2 -19 -12 -39 -23 -45 -17 -11 -19 -9 -19 15 0 24 24 63 40 63 3
0 4 -15 2 -33z m-10359 -65 c-65 -155 -349 -762 -356 -762 -16 0 74 312 133
459 39 98 152 333 172 358 8 10 16 9 38 -4 27 -16 27 -17 13 -51z m10717 -117
c42 -83 95 -202 119 -265 45 -121 127 -420 111 -404 -11 11 -231 478 -316 669
l-53 120 21 18 c12 10 26 16 32 15 6 -2 45 -71 86 -153z m-10631 106 c24 -18
24 -18 7 -62 -21 -51 -96 -181 -131 -224 l-25 -30 7 40 c16 109 84 295 106
295 7 0 23 -9 36 -19z m10491 -58 c38 -86 87 -273 71 -273 -18 0 -161 243
-161 275 0 15 51 56 62 49 4 -3 17 -26 28 -51z m-10401 -2 c23 -17 24 -21 11
-51 -18 -43 -77 -113 -85 -100 -7 12 2 91 17 138 11 37 23 39 57 13z m10299
-40 c7 -21 12 -63 12 -92 l-1 -54 -33 38 c-19 21 -41 52 -49 70 -15 31 -15 31
16 54 18 12 35 22 38 23 3 0 11 -17 17 -39z m-10190 -35 c-1 -1 -11 -8 -20
-15 -16 -12 -18 -11 -18 13 0 24 2 26 21 16 11 -7 19 -13 17 -14z m10062 -26
c0 -22 -1 -23 -24 -14 -13 5 -14 9 -5 20 16 20 29 17 29 -6z m-9006 -337 c-90
-239 -334 -814 -354 -837 -16 -16 32 179 76 314 50 152 154 371 239 503 31 48
58 87 60 87 2 0 -7 -30 -21 -67z m8061 -328 c41 -82 87 -190 104 -240 39 -115
102 -369 88 -355 -23 24 -346 797 -371 890 -15 52 109 -151 179 -295z m-8643
-2 c2 -55 -4 -89 -24 -121 -19 -32 -55 -58 -65 -49 -11 11 19 117 45 156 31
48 41 51 44 14z m274 -87 c-22 -92 -70 -211 -112 -276 l-35 -55 6 55 c14 121
67 268 129 355 19 28 21 28 24 9 2 -12 -4 -51 -12 -88z m-149 -12 c-6 -61 -45
-150 -77 -179 -20 -18 -20 -17 -20 26 0 60 14 106 50 162 40 64 54 62 47 -9z
m8718 -64 c42 -83 72 -181 80 -262 7 -60 6 -62 -10 -40 -57 78 -124 254 -140
372 l-6 45 22 -25 c12 -14 36 -54 54 -90z m263 70 c26 -39 44 -101 40 -137
l-3 -25 -26 21 c-37 28 -59 80 -59 136 0 55 13 56 48 5z m-108 -103 c22 -45
30 -74 30 -115 0 -48 -2 -53 -16 -42 -45 38 -90 169 -76 222 7 27 26 8 62 -65z
m-151 -2182 c-34 -157 -95 -329 -174 -490 -72 -147 -192 -344 -180 -295 13 46
173 444 255 630 45 102 89 202 98 223 8 20 17 36 19 33 2 -2 -6 -47 -18 -101z
m-8467 -135 c146 -332 295 -705 278 -695 -34 21 -201 332 -263 491 -49 125
-131 434 -107 407 4 -4 45 -96 92 -203z m8574 69 c-12 -107 -57 -227 -123
-332 -13 -22 -27 -37 -30 -34 -8 9 28 169 54 237 24 62 92 190 101 190 3 0 1
-27 -2 -61z m-8691 -92 c42 -89 85 -234 85 -287 0 -20 -8 -14 -41 38 -62 97
-119 272 -119 365 0 21 0 21 16 -1 8 -12 35 -64 59 -115z m8801 -21 c-8 -55
-42 -135 -75 -176 l-21 -25 0 50 c0 28 4 66 10 85 12 44 71 130 83 123 5 -3 6
-29 3 -57z m-8912 -50 c30 -62 46 -171 25 -164 -20 6 -65 76 -78 119 -6 20
-11 58 -11 84 0 47 0 48 20 30 11 -10 31 -41 44 -69z m9023 -58 c-7 -52 -53
-142 -72 -140 -13 2 -18 46 -11 86 6 33 60 106 78 106 7 0 9 -18 5 -52z
m-9176 9 c35 -27 59 -81 59 -134 0 -29 -3 -53 -6 -53 -22 0 -70 94 -79 153 -7
48 -2 55 26 34z m10212 -319 c-27 -118 -75 -273 -120 -388 -43 -109 -137 -307
-170 -357 -15 -22 -16 -22 -43 -6 l-28 16 33 76 c85 200 330 721 338 721 2 0
-2 -28 -10 -62z m-11178 -178 c115 -241 267 -581 263 -584 -48 -35 -51 -36
-65 -16 -31 44 -144 285 -186 396 -56 148 -135 435 -113 413 2 -2 48 -96 101
-209z m1192 -225 c69 -34 145 -119 219 -246 34 -57 83 -141 109 -186 64 -110
127 -188 181 -226 29 -21 41 -34 34 -41 -13 -13 -89 24 -148 72 -42 35 -44 35
-37 12 11 -36 40 -82 69 -109 14 -13 23 -28 20 -32 -8 -13 -82 18 -125 52 -30
24 -39 27 -39 14 0 -24 25 -67 54 -94 31 -29 32 -37 6 -51 -26 -14 -83 10
-127 52 -18 18 -35 29 -38 26 -11 -10 25 -82 57 -115 29 -30 30 -33 13 -40
-13 -4 -41 5 -87 30 -37 20 -68 32 -68 26 0 -18 28 -64 54 -88 28 -26 34 -51
13 -51 -15 0 -52 24 -89 58 -15 14 -30 23 -33 20 -9 -9 20 -73 51 -113 14 -19
22 -35 17 -35 -9 0 -192 239 -260 340 -46 69 -95 170 -89 186 7 19 50 18 87
-2 40 -20 47 -12 19 23 -31 40 -70 63 -108 63 -26 0 -33 4 -30 17 5 26 54 46
94 38 19 -3 63 -26 99 -50 36 -25 65 -42 65 -37 0 4 -16 28 -35 54 -40 54
-107 97 -178 113 l-50 11 31 13 c46 19 147 10 203 -18 25 -12 78 -52 118 -87
39 -35 74 -64 77 -64 13 0 -85 126 -124 161 -54 47 -155 99 -194 99 -15 0 -28
4 -28 9 0 14 39 24 90 24 85 -1 164 -55 293 -203 42 -49 57 -60 57 -45 1 59
-180 284 -260 325 -132 67 -286 7 -339 -134 -62 -165 1 -368 196 -642 338
-472 827 -966 1251 -1263 34 -24 62 -47 62 -52 0 -4 -12 -21 -26 -38 -20 -24
-30 -29 -43 -22 -39 21 -385 285 -506 385 -176 147 -176 147 -125 92 111 -119
375 -352 532 -470 l78 -58 -63 -68 c-34 -38 -113 -122 -174 -189 -62 -66 -113
-127 -113 -135 0 -34 41 -58 190 -111 277 -99 429 -128 660 -128 159 1 282 18
411 59 l80 25 81 -31 c44 -17 82 -30 84 -28 2 2 -26 17 -61 32 -36 16 -65 31
-65 35 0 10 101 52 110 46 5 -3 20 -26 36 -53 76 -132 211 -333 227 -338 9 -3
26 -3 36 1 15 5 114 128 182 227 3 4 43 -3 90 -17 570 -172 1234 -255 1812
-225 470 23 865 88 1284 209 l171 50 388 2 c525 3 585 -9 805 -158 154 -105
153 -105 225 38 132 264 180 529 138 765 -8 49 -16 98 -17 110 -2 15 24 40 98
96 284 215 709 617 911 861 126 153 312 403 368 497 160 265 148 531 -28 622
-58 30 -155 30 -214 -1 -89 -46 -244 -232 -258 -311 l-6 -35 48 55 c85 98 161
166 210 190 55 25 128 29 165 9 24 -13 23 -13 -19 -20 -98 -18 -235 -124 -296
-230 l-20 -34 53 45 c100 85 136 110 184 126 59 20 160 15 183 -8 13 -13 11
-15 -25 -16 -74 -3 -139 -42 -192 -115 -41 -57 -36 -63 17 -23 85 65 159 80
198 40 24 -24 19 -34 -16 -34 -39 0 -91 -29 -114 -65 -22 -33 -13 -40 25 -21
35 18 77 21 86 5 12 -18 -51 -131 -146 -266 -103 -145 -199 -266 -205 -260 -3
2 11 28 31 57 19 28 35 61 35 72 0 17 -7 14 -51 -21 -29 -23 -58 -41 -65 -41
-23 0 -24 17 -3 36 26 24 73 103 66 111 -3 3 -19 -4 -36 -16 -42 -30 -101 -53
-118 -47 -12 5 -9 14 15 44 66 85 73 131 11 78 -55 -46 -105 -64 -126 -43 -13
13 -11 20 20 61 57 74 63 117 11 73 -42 -35 -89 -57 -121 -57 l-27 0 41 43
c38 38 83 117 67 117 -4 0 -25 -16 -47 -36 -48 -44 -125 -80 -139 -66 -6 6 7
21 37 43 63 45 122 126 240 331 154 264 249 351 385 351 110 0 265 -102 309
-202 105 -245 -4 -579 -307 -944 -46 -56 -92 -111 -101 -122 -39 -47 113 92
167 153 244 278 352 511 352 760 l0 105 25 -23 c26 -24 36 -78 13 -64 -7 4 -5
-2 5 -13 44 -51 -4 -301 -95 -488 l-29 -60 37 40 c44 49 127 217 149 305 27
103 23 99 55 63 24 -27 28 -37 23 -75 -4 -37 -26 -134 -49 -217 -21 -75 67 74
95 162 7 20 15 37 19 37 15 0 52 -46 52 -64 0 -12 -9 -53 -19 -91 -11 -38 -18
-71 -16 -74 6 -5 65 91 71 117 8 28 12 28 61 -8 40 -29 41 -31 32 -69 -5 -21
-13 -51 -19 -66 -6 -15 -8 -30 -6 -33 5 -4 61 79 68 100 2 5 20 2 41 -8 43
-20 45 -36 22 -124 -14 -55 -14 -55 5 -30 10 14 27 43 36 65 10 22 19 41 20
43 1 2 21 -6 44 -18 l42 -21 -7 -52 c-4 -29 -16 -81 -27 -115 -11 -35 -17 -66
-15 -68 7 -7 74 128 86 174 7 23 15 42 19 42 4 0 30 -6 57 -13 l50 -14 -2 -89
c-1 -98 -29 -208 -82 -329 -30 -68 -30 -69 -6 -40 66 79 139 262 151 378 l7
67 36 -6 c20 -4 38 -9 41 -11 3 -3 4 -53 4 -111 -3 -172 -63 -341 -188 -532
l-56 -85 50 54 c151 160 270 436 270 627 0 44 0 44 35 44 l35 0 0 -58 c0 -126
-49 -298 -131 -460 -46 -89 -164 -272 -256 -397 -32 -44 -34 -47 -9 -25 52 45
178 203 248 309 150 228 227 448 228 651 0 83 9 81 35 -5 25 -80 21 -224 -10
-330 -34 -116 -76 -197 -190 -370 -824 -1242 -2045 -2209 -3460 -2740 -574
-215 -1182 -354 -1845 -421 -214 -21 -815 -30 -1050 -15 -1162 75 -2238 407
-3232 998 -841 500 -1597 1198 -2165 1999 -288 406 -346 532 -347 749 -1 82 4
123 17 162 23 65 43 82 33 29 -11 -60 13 -222 49 -332 66 -199 182 -394 356
-597 50 -59 93 -107 96 -107 6 0 -2 13 -88 132 -224 312 -329 556 -329 767 l0
81 29 0 c29 0 30 -1 36 -67 22 -225 140 -488 275 -618 l42 -40 -50 75 c-67
100 -124 216 -157 320 -21 66 -28 112 -32 207 l-6 122 38 7 c45 8 50 2 58 -77
12 -107 86 -290 148 -360 l30 -34 -29 60 c-54 110 -84 222 -89 331 l-6 101 49
12 c27 7 53 12 58 12 4 0 19 -30 31 -66 23 -64 73 -160 80 -153 3 2 -5 33 -16
68 -11 35 -22 89 -26 120 l-5 55 36 18 c20 9 39 17 42 17 2 0 13 -19 23 -42
19 -44 57 -97 48 -68 -10 32 -29 132 -25 134 1 1 20 12 40 24 l37 21 21 -43
c11 -24 29 -51 39 -61 19 -16 19 -15 0 45 -10 34 -19 67 -19 73 1 7 20 26 44
44 l43 32 12 -27 c21 -47 63 -114 67 -109 3 3 -2 32 -10 65 -22 82 -20 110 7
133 12 10 25 18 28 19 3 0 13 -24 22 -52 16 -52 87 -182 94 -174 2 2 -7 44
-21 92 -13 49 -28 113 -31 142 -6 48 -5 55 23 86 l30 34 17 -71 c24 -99 77
-220 131 -300 26 -37 48 -66 50 -64 2 2 -11 38 -31 79 -79 173 -119 404 -80
465 18 27 18 28 0 13 -17 -14 -18 -13 -12 10 4 14 7 28 7 31 0 4 10 13 23 21
l22 15 1 -101 c4 -277 150 -561 438 -846 47 -46 86 -81 86 -76 0 5 -25 37 -55
72 -175 199 -309 418 -361 589 -23 77 -27 109 -27 215 -1 191 27 248 170 347
98 67 190 76 290 28z m9697 -7 c-18 -100 -85 -298 -101 -298 -15 0 -63 33 -63
43 0 23 52 122 106 204 31 46 57 83 59 83 3 0 2 -15 -1 -32z m-10607 -126 c22
-37 49 -88 61 -114 l21 -47 -33 -21 c-19 -11 -36 -20 -39 -20 -17 0 -97 253
-96 305 0 18 2 17 23 -8 12 -16 41 -58 63 -95z m10447 -2 c-8 -61 -23 -110
-35 -110 -18 0 -59 32 -59 46 0 15 21 51 59 102 31 40 43 26 35 -38z m-10300
-50 l26 -48 -34 -21 c-18 -12 -36 -21 -38 -21 -10 0 -28 89 -28 136 l0 47 24
-22 c13 -12 35 -44 50 -71z m10152 23 c-3 -3 -13 -2 -23 1 -17 7 -17 8 2 22
18 13 20 13 23 -1 2 -9 1 -19 -2 -22z m-10056 -27 c-8 -8 -13 -7 -20 4 -12 20
-1 33 16 19 11 -9 12 -15 4 -23z m-10 -175 c0 -20 -8 -34 -26 -46 l-27 -17 7
32 c11 59 46 82 46 31z m10090 -38 l0 -36 -24 22 c-30 28 -26 77 5 60 13 -7
19 -21 19 -46z m-10218 -43 c0 -11 1 -25 2 -31 1 -6 -9 -18 -22 -27 -23 -15
-23 -15 -17 14 13 54 16 64 26 64 5 0 10 -9 11 -20z m10338 -52 c0 -26 -2 -27
-20 -16 -21 13 -25 34 -13 64 6 16 7 16 20 -2 7 -10 13 -31 13 -46z m-10462
-80 c-13 -10 -26 -18 -30 -18 -15 0 -8 28 14 55 l22 28 8 -24 c7 -19 4 -27
-14 -41z m10577 6 c9 -19 15 -37 13 -39 -2 -2 -17 6 -32 19 -22 17 -27 27 -22
44 9 28 19 22 41 -24z m-10685 -53 c0 -10 -11 -26 -25 -35 -29 -19 -30 -17
-10 30 15 36 35 38 35 5z m10805 -23 c16 -40 12 -46 -17 -24 -11 8 -18 27 -18
47 0 39 12 31 35 -23z m-10923 -19 c3 -36 1 -42 -24 -55 -21 -11 -28 -11 -28
-2 0 12 39 98 45 98 2 0 5 -18 7 -41z m4034 -2163 c49 -19 143 -47 209 -63
l120 -28 1160 -5 c638 -3 1151 -8 1140 -12 -32 -12 -318 -56 -470 -72 -238
-26 -420 -36 -690 -36 -388 0 -669 23 -1040 85 -188 31 -545 111 -545 122 0 7
20 43 24 43 2 0 44 -15 92 -34z"/>
<path d="M5650 15599 c-269 -22 -586 -76 -850 -145 -145 -37 -534 -164 -527
-171 3 -2 77 14 165 37 432 108 915 199 1402 264 l175 24 -130 0 c-71 -1 -177
-5 -235 -9z"/>
<path d="M6760 15599 c687 -94 1038 -162 1685 -325 16 -4 17 -3 5 5 -26 16
-369 128 -510 166 -359 97 -857 168 -1149 164 l-96 -1 65 -9z"/>
<path d="M9185 15001 c326 -161 743 -375 853 -438 23 -13 42 -22 42 -20 0 8
-218 156 -330 224 -264 160 -517 277 -814 379 -55 19 -102 34 -105 34 -4 -1
156 -81 354 -179z"/>
<path d="M5870 15019 c-410 -35 -771 -110 -1168 -241 -117 -39 -211 -72 -209
-75 3 -2 77 14 166 37 445 112 929 202 1436 269 l140 19 -135 -1 c-74 0 -178
-3 -230 -8z"/>
<path d="M2163 14241 c-290 -197 -472 -348 -723 -600 -156 -157 -289 -306
-405 -456 -22 -27 64 51 191 176 360 354 601 574 915 834 85 70 156 129 158
131 2 2 2 4 -1 4 -2 0 -63 -40 -135 -89z"/>
<path d="M10440 14300 c14 -12 104 -88 200 -170 258 -218 502 -442 804 -740
214 -210 258 -249 212 -190 -230 300 -592 656 -911 894 -113 85 -350 244 -305
206z"/>
<path d="M6160 14274 c-94 -9 -273 -34 -278 -39 -3 -3 64 -5 149 -5 85 0 327
-2 539 -5 399 -5 420 -2 205 31 -97 15 -516 27 -615 18z"/>
<path d="M5400 14195 c-151 -18 -265 -41 -401 -80 -120 -35 -363 -125 -355
-132 8 -9 729 167 866 211 57 18 31 18 -110 1z"/>
<path d="M2757 13929 c-393 -265 -739 -578 -1041 -941 -147 -178 -155 -197
-26 -64 258 265 718 689 1020 940 218 181 219 182 47 65z"/>
<path d="M10290 13607 c0 -3 78 -70 173 -150 307 -258 745 -663 995 -922 131
-135 133 -129 6 27 -239 295 -544 590 -840 814 -94 72 -334 237 -334 231z"/>
<path d="M3354 13853 c-53 -126 -79 -365 -54 -499 27 -149 83 -265 188 -390
l51 -62 -74 -111 c-130 -198 -175 -336 -182 -566 -4 -115 -1 -171 12 -240 9
-49 19 -93 22 -98 3 -5 19 15 36 45 48 85 131 190 205 260 136 128 361 256
575 326 230 76 133 72 1819 72 829 0 1508 -4 1508 -8 0 -8 -1626 -3321 -1634
-3329 -2 -2 -62 28 -133 67 -207 113 -395 170 -613 186 -86 6 -287 -8 -325
-22 -10 -4 5 -19 43 -44 182 -123 310 -277 430 -516 85 -170 152 -407 152
-538 0 -33 -115 -275 -626 -1326 -360 -739 -664 -1351 -716 -1440 -245 -420
-538 -817 -842 -1138 -38 -40 -67 -75 -64 -78 16 -15 252 -64 356 -74 264 -24
487 27 753 171 50 27 94 47 99 44 4 -2 35 -53 68 -112 86 -157 126 -223 134
-223 8 0 95 136 148 235 24 44 45 82 46 84 2 2 58 -21 124 -53 142 -67 259
-107 390 -132 90 -18 185 -19 1860 -21 1578 -2 1775 -3 1863 -18 116 -19 214
-51 304 -99 37 -20 68 -34 70 -32 13 13 56 163 68 240 43 263 -13 469 -183
673 l-52 62 57 88 c142 220 205 454 188 698 -6 94 -27 220 -38 231 -2 3 -18
-19 -35 -48 -170 -302 -552 -554 -942 -622 -86 -15 -235 -16 -1625 -14 l-1531
3 636 1300 635 1300 85 89 c102 106 251 220 398 305 139 79 232 118 360 151
56 15 105 30 108 33 3 3 -41 28 -97 56 -96 46 -260 100 -401 131 -32 7 -58 17
-58 23 0 12 1542 3174 1633 3347 259 495 580 955 939 1343 50 54 89 99 87 101
-8 7 -177 45 -254 57 -44 7 -145 12 -225 12 -220 -1 -397 -44 -611 -148 -51
-25 -97 -45 -103 -45 -6 0 -55 72 -110 160 -54 88 -100 160 -102 160 -7 0 -89
-133 -138 -222 -26 -48 -52 -90 -57 -94 -5 -3 -58 17 -117 44 -131 60 -238 98
-357 125 -89 21 -114 21 -1860 27 -1262 5 -1792 10 -1845 18 -153 24 -269 57
-362 103 -32 16 -60 29 -63 29 -3 0 -13 -17 -21 -37z m3440 -353 c269 -12 492
-23 495 -25 2 -3 -13 -5 -35 -5 -21 0 -265 -9 -542 -21 l-503 -22 -617 22
c-571 21 -729 30 -556 32 38 0 267 9 509 18 590 24 679 24 1249 1z m408 -2071
c-620 -1314 -727 -1533 -1492 -3051 -454 -900 -826 -1635 -827 -1634 -2 1 355
756 791 1677 738 1557 843 1771 1492 3051 384 758 699 1376 701 1375 1 -2
-298 -640 -665 -1418z m139 -895 c-642 -1361 -742 -1566 -1491 -3051 -442
-876 -805 -1592 -806 -1590 -2 2 339 725 757 1607 706 1491 812 1708 1492
3052 403 795 733 1445 734 1444 2 -2 -307 -659 -686 -1462z m-195 264 c-24
-51 -328 -696 -676 -1433 -573 -1215 -708 -1491 -1447 -2960 -449 -891 -820
-1624 -825 -1630 -13 -14 -2 11 801 1705 657 1385 800 1678 1386 2835 359 710
685 1354 724 1433 39 78 73 142 75 142 3 0 -15 -42 -38 -92z m371 -6095 c249
-9 450 -19 448 -22 -3 -2 -244 -14 -537 -26 l-533 -23 -595 23 c-327 12 -593
23 -590 25 14 7 1132 48 1235 45 66 -2 323 -12 572 -22z"/>
<path d="M10880 5014 c-305 -307 -683 -656 -984 -906 -208 -173 -197 -164
-171 -150 45 24 271 183 385 271 302 234 592 523 864 864 21 26 37 47 35 47
-3 0 -60 -57 -129 -126z"/>
<path d="M11665 4728 c-212 -224 -688 -668 -980 -915 -78 -65 -161 -135 -185
-156 l-45 -38 45 27 c112 66 343 238 505 373 137 115 414 390 544 541 116 134
216 260 208 260 -3 0 -44 -42 -92 -92z"/>
<path d="M1086 4751 c276 -358 656 -721 1032 -985 133 -94 215 -146 192 -123
-8 8 -73 63 -145 123 -285 237 -534 465 -884 809 -166 163 -229 219 -195 176z"/>
<path d="M4671 3966 c2 -2 42 -20 89 -39 205 -85 425 -143 643 -172 150 -19
190 -19 127 1 -99 32 -828 214 -857 214 -4 0 -4 -2 -2 -4z"/>
<path d="M8020 3948 c-187 -43 -611 -149 -710 -177 -78 -22 -96 -30 -70 -30
95 -2 342 41 518 90 105 30 329 114 347 130 5 5 7 9 5 8 -3 -1 -43 -10 -90
-21z"/>
<path d="M5853 3709 c70 -17 262 -38 397 -45 138 -7 371 6 530 30 l85 12 -124
7 c-182 10 -934 7 -888 -4z"/>
<path d="M2694 3381 c10 -15 282 -194 390 -256 213 -122 466 -236 704 -319 74
-25 136 -46 139 -46 3 0 -205 105 -463 234 -258 129 -538 271 -622 316 -85 44
-151 76 -148 71z"/>
<path d="M8235 3279 c-408 -107 -940 -208 -1500 -284 l-180 -25 170 6 c438 13
838 77 1250 199 212 63 426 139 379 134 -5 0 -58 -14 -119 -30z"/>
<path d="M4310 2661 c35 -22 418 -143 590 -185 352 -86 829 -149 1110 -145 72
1 70 2 -65 20 -515 68 -1054 169 -1485 279 -165 43 -168 43 -150 31z"/>
<path d="M8260 2614 c-386 -98 -883 -191 -1385 -259 l-180 -25 172 5 c470 14
940 98 1401 251 174 57 246 85 217 83 -5 -1 -107 -25 -225 -55z"/>
<path d="M1129 9231 c-72 -24 -109 -72 -109 -143 0 -81 39 -109 221 -158 146
-40 159 -49 159 -116 0 -72 -56 -114 -154 -114 -69 0 -147 46 -190 112 -18 27
-39 47 -50 47 -12 1 -16 -4 -13 -14 4 -8 16 -50 28 -95 22 -81 39 -98 58 -61
10 18 12 18 53 -3 29 -14 67 -22 118 -24 66 -3 81 0 130 25 74 38 100 78 100
156 0 55 -3 62 -34 92 -23 22 -57 38 -112 54 -240 68 -235 66 -236 121 -1 21
7 40 25 57 59 60 198 31 267 -56 46 -57 58 -40 30 43 -24 73 -37 87 -55 63
-11 -16 -15 -16 -45 -1 -37 19 -152 28 -191 15z"/>
<path d="M10573 9216 c-60 -29 -93 -73 -93 -127 0 -49 19 -72 55 -67 34 3 45
36 25 73 -18 33 -9 56 29 82 61 41 154 23 180 -34 18 -39 12 -94 -14 -152 -30
-64 -132 -168 -222 -226 -52 -33 -63 -45 -63 -67 l0 -28 199 0 199 0 16 65
c27 109 19 122 -31 51 -37 -52 -63 -59 -207 -54 l-89 3 79 52 c169 109 239
195 239 293 0 98 -62 151 -185 157 -53 3 -74 -1 -117 -21z"/>
<path d="M11113 9221 c-88 -40 -138 -155 -131 -296 3 -66 10 -94 34 -141 41
-81 88 -117 163 -122 80 -6 123 11 171 65 55 63 74 129 68 247 -6 133 -51 213
-140 251 -50 20 -114 19 -165 -4z m162 -55 c42 -45 60 -111 59 -221 0 -106
-21 -179 -63 -219 -35 -33 -86 -38 -125 -13 -104 69 -107 399 -4 471 12 9 40
16 62 16 31 0 45 -7 71 -34z"/>
<path d="M12102 9215 c-186 -95 -125 -339 84 -339 51 0 70 5 103 27 23 15 41
32 41 37 0 6 5 10 10 10 7 0 8 -19 4 -52 -10 -91 -25 -131 -58 -164 -56 -56
-154 -55 -177 3 -21 52 -26 58 -55 58 -24 0 -30 -5 -32 -27 -5 -40 12 -63 64
-88 38 -19 57 -22 119 -18 120 8 178 59 211 188 24 93 16 201 -20 274 -38 77
-84 107 -174 113 -58 4 -74 1 -120 -22z m178 -34 c36 -26 50 -59 50 -121 0
-69 -26 -115 -77 -136 -64 -27 -127 -4 -159 58 -31 59 -8 175 39 200 57 30
103 30 147 -1z"/>
<path d="M402 9218 c3 -7 15 -15 29 -18 43 -10 49 -40 49 -255 0 -217 -4 -236
-55 -249 -14 -4 -25 -11 -25 -16 0 -7 85 -9 241 -8 l240 3 35 79 c19 44 34 83
34 88 0 19 -26 5 -70 -40 -26 -27 -64 -56 -83 -66 -48 -22 -142 -39 -178 -31
-53 12 -59 26 -59 141 l0 104 49 0 c58 0 96 -26 106 -70 4 -17 13 -30 21 -30
11 0 14 23 14 120 0 95 -3 120 -14 120 -7 0 -16 -14 -20 -32 -11 -53 -32 -68
-98 -68 l-58 0 0 84 c0 109 7 116 103 116 87 0 144 -23 204 -82 55 -54 64 -35
27 56 l-26 66 -235 0 c-180 0 -234 -3 -231 -12z"/>
<path d="M1502 9162 c-12 -38 -22 -71 -22 -75 0 -19 26 -3 61 37 44 50 113 82
154 72 l25 -6 0 -228 c0 -125 -4 -233 -9 -240 -4 -7 -21 -16 -36 -20 -16 -5
-30 -13 -33 -20 -3 -9 28 -12 118 -12 90 0 121 3 118 12 -3 7 -17 15 -33 20
-15 4 -32 13 -36 20 -5 7 -9 115 -9 240 l0 228 25 6 c41 10 110 -22 154 -72
35 -40 61 -56 61 -37 0 4 -10 37 -22 75 l-22 68 -236 0 -236 0 -22 -68z"/>
<path d="M11651 9216 c-74 -13 -95 -36 -34 -36 22 0 44 -5 51 -12 9 -9 12 -73
12 -224 0 -226 -4 -244 -50 -244 -25 0 -50 -10 -50 -21 0 -5 63 -9 140 -9 77
0 140 4 140 9 0 5 -19 15 -42 23 -35 11 -44 19 -49 43 -4 17 -7 132 -8 258
l-1 227 -22 -1 c-13 -1 -52 -7 -87 -13z"/>
<path d="M2107 8752 c-34 -37 -15 -82 33 -82 34 0 50 17 50 52 0 45 -53 64
-83 30z"/>
<path d="M38 2708 c-16 -5 -28 -13 -28 -17 0 -5 50 -53 112 -107 91 -81 117
-99 141 -97 52 2 52 18 0 65 -112 104 -185 168 -192 167 -3 0 -18 -5 -33 -11z"/>
<path d="M12564 2574 c-66 -53 -120 -98 -121 -99 -5 -3 10 -75 16 -75 4 0 61
45 129 101 112 92 122 102 116 127 -4 15 -10 31 -14 35 -4 5 -61 -36 -126 -89z"/>
<path d="M1291 2336 c-8 -9 -3 -20 19 -41 51 -49 46 -65 -121 -341 -83 -137
-163 -262 -177 -277 -27 -29 -49 -31 -108 -12 -14 4 -23 2 -27 -7 -4 -13 178
-129 584 -371 13 -8 41 8 128 69 61 43 111 81 111 84 0 3 -4 11 -9 18 -7 11
-20 10 -75 -7 -99 -31 -180 -36 -254 -17 -76 19 -150 56 -198 98 -32 28 -36
36 -31 69 4 30 78 167 145 267 6 9 24 3 70 -27 88 -57 107 -102 78 -184 -12
-33 -12 -38 3 -46 14 -8 29 10 88 107 122 200 117 191 98 198 -10 4 -27 -4
-48 -23 -67 -63 -104 -63 -204 0 l-51 32 53 88 c29 48 63 99 76 113 33 35 79
32 148 -10 112 -69 188 -171 213 -288 8 -40 17 -58 30 -61 13 -4 19 1 23 16
16 78 35 181 35 193 0 16 3 14 -334 218 -197 120 -257 152 -265 142z"/>
<path d="M11282 2211 c-8 -5 -12 -17 -10 -27 3 -16 -6 -21 -64 -31 -221 -37
-364 -223 -288 -373 63 -123 147 -133 422 -50 202 61 254 57 293 -26 24 -50
17 -131 -16 -178 -90 -133 -287 -164 -465 -73 -38 19 -54 23 -63 14 -17 -17
-15 -22 52 -85 133 -126 146 -136 163 -121 10 8 14 23 12 41 -3 16 0 28 6 28
6 0 42 5 80 10 270 39 431 303 296 487 -66 89 -160 95 -390 24 -173 -54 -235
-61 -272 -32 -34 27 -50 79 -37 125 11 40 81 108 136 132 57 26 192 24 263 -4
46 -18 57 -20 68 -8 12 11 1 25 -71 85 -87 73 -93 76 -115 62z"/>
<path d="M2440 1628 c-78 -40 -122 -128 -106 -212 10 -53 76 -128 188 -214
184 -140 215 -176 204 -236 -22 -116 -144 -167 -281 -115 -105 39 -194 163
-218 303 -10 59 -14 66 -34 66 -13 0 -23 -5 -23 -12 0 -7 -7 -68 -16 -137 -15
-119 -15 -125 2 -138 15 -11 21 -10 40 8 l23 22 52 -57 c112 -123 274 -173
418 -130 93 27 171 131 171 226 0 74 -67 154 -226 271 -128 94 -174 146 -174
197 0 30 7 48 29 72 28 31 33 33 98 33 81 0 129 -20 189 -80 46 -46 90 -132
100 -194 6 -35 10 -42 28 -39 19 3 22 12 29 113 8 98 7 111 -9 122 -15 11 -21
10 -35 -3 -16 -14 -21 -11 -63 34 -69 73 -159 115 -261 120 -69 3 -86 0 -125
-20z"/>
<path d="M10038 1567 c-47 -20 -48 -21 -47 -66 0 -25 6 -192 13 -371 6 -179 9
-345 5 -370 -5 -35 -15 -52 -45 -77 -26 -24 -35 -36 -27 -44 15 -15 303 108
296 127 -4 11 -18 12 -57 8 -43 -5 -54 -3 -69 14 -19 20 -36 112 -37 188 l0
41 147 63 147 62 63 -68 c104 -113 111 -144 43 -179 -30 -15 -41 -45 -18 -45
7 0 83 30 169 67 167 71 190 93 99 93 -37 0 -55 6 -81 28 -19 15 -149 144
-289 287 -140 143 -257 261 -260 261 -3 1 -26 -7 -52 -19z m176 -266 c59 -63
104 -117 99 -121 -18 -15 -234 -102 -240 -96 -6 6 -21 231 -22 336 l-1 55 29
-30 c16 -17 77 -81 135 -144z"/>
<path d="M3417 1188 c-31 -49 -57 -94 -57 -99 0 -24 33 -18 72 14 24 19 58 42
77 52 69 35 210 29 225 -10 2 -7 -33 -155 -80 -327 -96 -357 -100 -365 -181
-354 -37 5 -43 3 -43 -13 0 -15 28 -25 163 -61 89 -24 168 -45 175 -48 7 -2
12 4 12 16 0 13 -9 23 -22 27 -38 12 -68 46 -68 77 0 36 158 628 173 646 7 8
21 11 41 6 87 -19 160 -87 198 -186 16 -41 28 -58 41 -58 16 0 17 10 15 112
l-3 112 -235 63 c-129 35 -283 76 -341 91 l-105 29 -57 -89z"/>
<path d="M8913 1172 c-273 -74 -323 -90 -327 -107 -3 -11 -6 -62 -6 -112 0
-85 2 -93 19 -93 14 0 23 13 34 45 33 96 102 167 191 195 31 10 41 10 51 -1
17 -17 175 -603 175 -647 0 -34 -30 -69 -67 -78 -14 -4 -23 -14 -23 -26 0 -14
5 -18 18 -14 9 2 89 24 177 47 88 23 161 43 163 44 1 1 0 9 -3 16 -4 10 -21
15 -56 14 -44 0 -54 4 -72 27 -21 28 -177 592 -177 640 0 23 6 29 38 37 87 25
181 1 261 -67 39 -33 50 -38 63 -28 15 11 10 22 -42 104 -40 62 -65 92 -77 91
-10 0 -163 -40 -340 -87z"/>
<path d="M4630 971 c0 -12 6 -21 14 -21 7 0 25 -9 40 -21 19 -15 26 -30 26
-56 0 -58 -99 -615 -113 -632 -20 -26 -30 -31 -64 -31 -18 0 -33 -4 -33 -10 0
-5 -1 -13 -2 -17 -3 -8 303 -63 315 -56 17 10 4 30 -29 42 -59 21 -60 35 -14
316 67 404 71 415 142 415 30 0 38 4 38 18 0 15 -21 21 -137 41 -76 12 -148
25 -160 28 -18 4 -23 1 -23 -16z"/>
<path d="M7945 929 c-5 -16 -12 -19 -28 -15 -145 41 -291 18 -377 -60 -51 -46
-70 -90 -70 -162 0 -139 88 -188 380 -212 196 -16 229 -31 250 -109 32 -120
-80 -225 -240 -226 -100 0 -186 39 -271 125 -64 63 -66 65 -87 52 -10 -7 2
-39 48 -136 53 -113 62 -127 82 -124 13 2 24 11 26 23 6 33 16 36 59 21 145
-51 328 -13 427 88 128 132 89 332 -74 380 -30 9 -131 23 -223 31 -177 16
-224 28 -251 66 -23 33 -21 100 5 133 58 74 202 94 311 44 32 -15 79 -47 105
-71 39 -36 52 -43 66 -36 16 9 12 19 -35 109 -42 79 -57 100 -75 100 -13 0
-24 -8 -28 -21z"/>
<path d="M5450 851 c0 -15 6 -21 24 -21 13 0 35 -9 50 -21 23 -18 26 -27 26
-87 0 -117 -38 -580 -50 -601 -13 -26 -41 -41 -75 -41 -20 0 -26 -4 -23 -17 3
-16 30 -20 238 -35 129 -9 267 -19 307 -23 l72 -6 36 78 c72 156 79 174 66
182 -8 5 -37 -17 -81 -61 -91 -91 -174 -131 -272 -131 -77 0 -117 20 -128 64
-6 22 22 490 36 588 7 54 41 91 84 91 23 0 30 5 30 19 0 16 -12 19 -122 25
-68 4 -144 9 -170 13 -44 5 -48 4 -48 -16z"/>
<path d="M6607 824 c-12 -12 6 -34 28 -34 13 0 33 -8 46 -19 21 -17 24 -29 30
-147 4 -71 8 -222 8 -336 1 -201 0 -208 -21 -228 -12 -11 -32 -20 -45 -20 -22
0 -42 -24 -30 -36 3 -3 78 -3 166 1 120 6 161 11 161 20 0 7 -19 19 -42 27
-36 11 -45 19 -54 48 -7 20 -14 161 -18 331 -8 334 -7 342 56 361 21 6 38 17
38 25 0 10 -33 13 -158 13 -87 0 -161 -3 -165 -6z"/>
</g>
</svg>
