<?xml version="1.0" standalone="no"?>
<!DOCTYPE svg PUBLIC "-//W3C//DTD SVG 20010904//EN"
 "http://www.w3.org/TR/2001/REC-SVG-20010904/DTD/svg10.dtd">
<svg version="1.0" xmlns="http://www.w3.org/2000/svg"
 width="300.000000pt" height="272.000000pt" viewBox="0 0 300.000000 272.000000"
 preserveAspectRatio="xMidYMid meet">
<metadata>
Created by potrace 1.10, written by Peter Selinger 2001-2011
</metadata>
<g transform="translate(0.000000,272.000000) scale(0.100000,-0.100000)"
fill="#000000" stroke="none">
<path d="M1305 2509 c-135 -19 -318 -93 -430 -173 -121 -87 -271 -262 -282
-329 -7 -48 8 -69 59 -82 50 -12 50 -10 9 -121 -16 -45 -27 -84 -25 -87 3 -3
20 3 37 13 18 11 48 26 68 34 l36 15 42 -60 c41 -58 61 -67 61 -28 0 10 23 62
50 115 28 53 48 104 45 113 -3 9 -17 24 -33 33 -15 9 -36 26 -47 38 l-20 22
65 59 c44 41 66 55 68 45 2 -8 -2 -24 -7 -35 -22 -40 -2 -171 26 -171 4 0 22
21 38 47 50 77 70 83 287 83 104 0 188 -1 188 -2 0 -2 -41 -86 -90 -187 -77
-155 -93 -182 -108 -175 -47 21 -192 10 -192 -15 0 -5 21 -21 46 -36 33 -20
51 -39 65 -70 l19 -44 -85 -178 c-80 -165 -159 -303 -174 -303 -3 0 -37 28
-74 61 -65 59 -67 62 -51 81 10 10 33 28 51 39 18 12 33 29 33 39 0 11 -18 53
-39 94 -22 41 -45 93 -52 115 -7 23 -15 41 -18 41 -3 0 -24 -25 -46 -55 -22
-30 -44 -55 -50 -55 -5 0 -37 14 -69 30 -33 17 -61 29 -62 27 -6 -5 32 -120
50 -156 20 -37 12 -51 -31 -51 -87 0 -90 -77 -7 -190 313 -426 911 -532 1345
-239 146 98 309 287 309 358 0 48 -8 58 -51 66 -54 10 -63 18 -49 45 14 27 61
162 57 166 -1 1 -33 -13 -72 -31 l-69 -34 -32 47 c-54 81 -58 81 -84 10 -12
-35 -35 -84 -50 -110 -46 -74 -44 -87 15 -128 25 -17 45 -37 45 -45 0 -7 -28
-38 -62 -69 -49 -44 -64 -52 -71 -41 -4 8 -4 23 1 32 27 50 15 188 -16 188 -7
0 -23 -18 -35 -39 -44 -78 -53 -81 -278 -84 -109 -2 -199 -1 -199 3 0 3 34 72
75 154 82 164 101 186 186 205 28 6 51 16 52 21 1 9 -26 30 -78 60 -15 9 -5
34 93 233 111 223 167 322 183 322 5 0 40 -30 79 -66 68 -64 70 -68 53 -86 -9
-10 -32 -28 -50 -39 -40 -25 -42 -51 -9 -100 28 -41 76 -151 76 -174 0 -8 3
-15 8 -15 6 0 63 75 82 108 6 11 23 6 79 -22 39 -20 71 -33 71 -28 0 19 -33
119 -51 154 l-19 37 38 10 c20 6 43 11 50 11 7 0 18 11 24 25 17 37 -2 88 -62
167 -216 286 -582 437 -935 387z m332 -24 c211 -45 385 -142 527 -296 51 -55
64 -76 62 -97 -1 -15 3 -39 11 -54 7 -15 13 -37 12 -50 -1 -19 -3 -17 -10 9
-5 18 -14 35 -20 39 -8 4 -8 0 0 -14 6 -11 11 -29 11 -39 -1 -17 -2 -16 -16 2
-16 20 -16 19 -9 -4 5 -16 4 -21 -4 -17 -6 4 -11 2 -11 -4 0 -6 -5 -8 -12 -4
-10 6 -10 4 0 -8 10 -13 10 -18 1 -24 -8 -4 -9 -3 -5 4 4 7 2 12 -3 12 -6 0
-14 0 -18 0 -5 0 -13 -15 -20 -33 -6 -17 -12 -24 -12 -15 -1 9 3 28 8 41 8 21
7 25 -7 23 -10 -2 -27 11 -40 31 -13 19 -26 32 -30 29 -3 -3 4 -16 16 -29 46
-49 54 -109 18 -132 -31 -21 -55 -9 -81 39 -11 20 -23 36 -27 36 -5 0 -8 4 -8
10 0 5 3 9 8 8 9 -3 53 27 49 33 -1 3 10 -7 25 -22 27 -28 31 -60 8 -67 -7 -3
-10 0 -7 5 3 5 0 10 -8 10 -22 0 -18 -12 8 -26 22 -11 22 -11 -3 -5 -19 5 -22
3 -14 -6 22 -22 49 -7 52 29 4 43 -29 91 -131 187 -85 80 -93 95 -19 38 l47
-36 -47 44 -48 44 31 31 32 31 -24 13 c-15 9 -56 14 -109 14 -72 0 -87 3 -101
20 -14 16 -19 17 -32 7 -12 -10 -25 -11 -54 -3 -21 6 -47 11 -58 10 -11 0 7
-8 40 -18 50 -15 62 -15 71 -4 10 11 15 9 31 -13 18 -25 21 -25 62 -14 32 8
56 8 97 0 l55 -12 -44 -51 c-24 -29 -60 -77 -79 -107 -34 -53 -251 -491 -246
-495 2 -2 22 -12 45 -24 52 -26 62 -41 28 -41 -34 0 -94 -26 -122 -52 -21 -20
-173 -318 -173 -339 0 -5 91 -8 203 -6 183 2 205 4 237 23 31 18 72 65 83 97
11 30 22 -11 20 -76 -1 -40 -3 -85 -3 -102 0 -16 2 -49 6 -73 4 -26 1 -54 -6
-72 -12 -29 -13 -29 -41 -15 -22 12 -78 15 -282 15 -160 0 -266 4 -286 11 -29
10 -33 9 -53 -16 l-21 -27 -14 26 c-16 30 -11 29 -68 15 -33 -8 -57 -8 -95 1
-27 7 -50 14 -50 17 0 3 25 32 55 66 43 48 79 108 160 269 58 115 105 218 105
231 0 37 -43 100 -84 123 -21 12 -34 24 -30 27 25 14 103 16 145 4 l46 -14 96
194 c54 106 97 196 97 201 0 4 -96 5 -213 2 -213 -5 -214 -5 -249 -32 -19 -15
-43 -44 -54 -65 l-18 -38 -12 53 c-8 36 -9 63 -2 90 11 40 11 51 2 127 -3 28
-1 63 5 79 10 25 13 26 28 15 12 -11 82 -15 297 -20 155 -3 291 -9 304 -13 13
-5 22 -4 22 1 0 27 -213 46 -350 31 -64 -7 -64 -7 -25 6 55 19 20 20 -41 1
-63 -19 -151 -19 -188 0 -15 8 -33 15 -38 15 -17 0 -40 -73 -36 -114 4 -38 1
-43 -79 -123 -46 -45 -83 -79 -83 -75 0 4 3 12 8 18 4 5 -5 -4 -20 -20 -16
-17 -28 -26 -28 -21 0 6 -4 4 -9 -4 -5 -8 -7 -30 -5 -50 3 -31 2 -32 -5 -11
-5 14 -9 20 -10 13 -1 -7 -8 -10 -17 -6 -15 5 -15 7 0 15 9 5 16 14 16 21 0 7
-4 6 -10 -3 -7 -11 -10 -11 -10 -2 0 7 -5 10 -10 7 -6 -3 -13 1 -16 9 -3 9
-11 13 -17 9 -6 -4 -8 2 -4 18 6 23 5 23 -8 5 -20 -26 -28 -15 -15 19 6 15 9
30 6 32 -8 9 -26 -64 -20 -83 4 -14 3 -15 -4 -6 -5 8 -13 12 -18 10 -5 -1 -11
8 -13 22 -3 23 -4 24 -12 5 -6 -14 -7 -9 -3 15 6 36 92 165 110 165 6 0 46 33
90 74 43 41 68 66 54 55 -14 -10 -46 -39 -72 -63 -27 -25 -48 -41 -48 -35 0 6
24 30 53 55 138 119 290 196 462 234 82 18 297 19 382 0z m628 -422 c16 -24
25 -50 24 -73 l-1 -35 -8 38 c-9 48 -22 62 -15 16 5 -32 5 -33 -4 -6 -6 16 -7
35 -4 43 3 9 0 14 -7 12 -7 -2 -13 7 -15 20 -2 29 0 28 30 -15z m-1390 -82
c-5 -10 33 -37 47 -33 10 3 -48 -82 -67 -98 -21 -18 -65 12 -65 44 0 14 -3 33
-6 43 -4 13 -3 14 3 5 7 -9 13 -6 22 14 6 15 14 24 17 22 2 -3 -2 -18 -11 -34
-24 -47 -14 -84 25 -84 13 0 13 2 0 11 -12 8 -11 9 6 4 14 -4 24 0 27 9 7 18
-9 31 -18 16 -8 -13 -35 -13 -35 0 0 6 3 9 8 8 4 -2 7 2 7 7 0 6 -3 9 -7 8
-16 -6 -7 15 17 41 23 25 42 36 30 17z m1242 -53 c-3 -8 -6 -5 -6 6 -1 11 2
17 5 13 3 -3 4 -12 1 -19z m-1188 -64 c-6 -13 -15 -21 -19 -19 -4 2 -19 -8
-33 -24 -22 -25 -30 -28 -71 -25 -27 3 -61 -2 -81 -10 -19 -8 -35 -11 -35 -5
0 5 4 9 8 9 5 0 14 11 20 25 16 35 55 42 87 17 38 -30 74 -10 111 60 15 27 19
30 22 14 2 -10 -2 -29 -9 -42z m1083 -15 c33 -36 57 -37 99 -1 18 15 30 21 25
15 -4 -8 1 -17 16 -23 13 -6 31 -24 40 -40 l16 -28 -41 14 c-23 8 -48 11 -57
8 -43 -20 -64 -13 -112 38 -26 28 -48 61 -48 72 1 20 2 20 18 -3 9 -13 29 -36
44 -52z m-1278 45 c9 -3 16 -14 16 -23 0 -14 -2 -14 -10 -1 -7 11 -10 11 -10
2 0 -7 -4 -11 -9 -7 -5 3 -15 -11 -21 -30 -6 -19 -16 -37 -21 -41 -5 -3 0 18
11 48 11 29 20 54 20 56 0 4 7 2 24 -4z m1466 -36 c11 -24 19 -50 19 -58 0 -8
-9 5 -19 30 -10 25 -19 38 -20 30 -1 -10 -3 -11 -7 -2 -2 6 -9 10 -14 6 -13
-8 -11 10 3 24 17 17 17 17 38 -30z m-1315 -94 c-13 -32 -24 -53 -25 -46 0 7
-4 11 -9 7 -5 -3 -12 4 -16 15 -4 11 -11 18 -16 15 -5 -4 -9 -2 -9 4 0 5 5 13
10 16 6 3 10 2 10 -3 0 -5 7 -9 15 -9 8 0 15 4 15 9 0 5 4 7 9 4 5 -3 14 8 21
24 7 17 14 29 16 27 2 -2 -7 -30 -21 -63z m1126 21 c9 -24 16 -31 22 -22 5 7
6 1 3 -18 l-6 -30 15 28 c17 29 39 37 33 11 -2 -8 -7 -14 -13 -14 -5 1 -13 -9
-17 -21 -5 -12 -10 -20 -12 -18 -13 16 -53 119 -46 119 5 0 14 -16 21 -35z
m-1117 -382 c26 -55 30 -88 5 -41 -6 12 -18 27 -26 31 -10 6 -13 18 -9 35 4
23 3 22 -10 -6 -13 -30 -34 -36 -34 -11 0 6 4 8 9 5 4 -3 13 6 19 19 7 14 14
25 16 25 3 0 16 -25 30 -57z m1156 42 c5 3 11 -4 15 -15 4 -11 11 -18 16 -15
5 4 9 2 9 -4 0 -5 -4 -13 -10 -16 -5 -3 -10 -2 -10 3 0 5 -7 9 -15 9 -8 0 -15
-5 -15 -10 0 -6 -3 -7 -7 -3 -4 4 -15 -8 -25 -26 -21 -38 -21 -33 7 41 11 29
21 48 23 42 2 -6 7 -9 12 -6z m-1309 -71 c18 -9 38 -12 47 -8 42 18 71 9 118
-38 28 -29 45 -53 42 -64 -2 -15 -10 -10 -33 24 -36 51 -66 61 -110 38 -38
-21 -62 -13 -89 28 -26 41 -22 45 25 20z m1457 -10 c-7 -14 -24 -32 -40 -40
-25 -13 -30 -12 -59 5 -30 18 -35 19 -58 5 -15 -9 -36 -31 -49 -50 -12 -19
-26 -34 -31 -34 -19 0 2 40 44 84 42 45 63 51 107 32 11 -5 33 -2 55 7 21 9
39 16 40 16 2 1 -3 -11 -9 -25z m12 -47 c-21 -57 -21 -57 -46 -41 -31 21 -31
28 1 22 13 -3 22 -1 19 3 -3 5 -1 9 3 9 5 0 15 16 22 36 7 19 15 34 17 31 3
-2 -5 -30 -16 -60z m-1480 -16 c8 -2 21 -4 29 -4 9 0 6 -7 -9 -19 l-24 -19
-17 33 c-9 18 -19 44 -23 58 -4 17 0 14 12 -10 10 -19 24 -37 32 -39z m166
-33 l33 -47 -28 -21 c-36 -25 -35 -25 -56 6 -12 18 -13 29 -6 38 6 7 8 16 4
19 -3 4 -2 7 3 7 6 0 15 -5 21 -11 7 -7 13 -7 17 -1 8 14 -30 44 -51 40 -11
-2 -19 -14 -21 -32 -5 -38 52 -119 137 -198 36 -33 56 -55 44 -49 -12 6 -25
16 -28 21 -3 5 -16 15 -28 21 -12 6 -4 -5 17 -24 l40 -34 -23 -29 c-21 -27
-21 -29 -5 -41 26 -19 79 -26 140 -20 49 5 55 3 71 -19 18 -25 18 -25 39 -5
20 18 25 18 80 5 76 -18 241 -17 324 1 87 19 161 19 210 -1 28 -11 45 -13 51
-7 15 15 29 84 23 109 -4 16 8 31 50 67 81 70 148 163 144 201 -2 24 -8 32
-28 34 -24 3 -25 3 -5 -12 11 -8 16 -16 10 -16 -5 0 -3 -5 5 -11 13 -9 12 -10
-2 -5 -10 3 -20 1 -23 -5 -4 -5 -1 -8 6 -7 19 5 20 -16 0 -41 l-18 -24 -31 22
-31 22 20 33 c33 56 55 71 84 58 37 -17 35 -76 -6 -133 -29 -40 -30 -42 -6
-20 15 13 29 33 33 44 5 16 8 17 15 6 6 -9 8 2 4 31 -3 36 -3 39 4 15 8 -29 9
-29 11 -5 2 22 3 22 11 -9 6 -18 13 -31 16 -27 3 3 12 -2 20 -12 8 -9 12 -11
8 -4 -5 10 -1 10 20 0 14 -6 24 -16 22 -22 -15 -41 -13 -54 3 -21 11 23 20 32
20 22 0 -10 -7 -32 -16 -48 -8 -17 -13 -33 -10 -37 3 -3 0 -12 -6 -21 -10 -14
-10 -14 2 -3 8 7 15 20 15 30 0 9 6 16 14 14 8 -2 11 3 8 12 -3 8 -2 27 3 43
8 28 8 28 10 3 2 -24 3 -24 11 5 8 27 8 26 4 -9 -4 -39 -90 -171 -111 -171 -6
0 -42 -29 -80 -65 -38 -36 -60 -58 -49 -50 11 8 39 32 63 54 23 22 42 36 42
31 0 -12 -74 -77 -146 -128 -108 -77 -334 -169 -413 -166 -14 0 5 7 44 16 38
8 76 19 85 24 11 7 9 8 -9 3 -13 -3 -67 -14 -120 -24 -81 -14 -90 -18 -61 -23
19 -3 -30 -4 -110 -2 -155 3 -254 24 -380 81 -66 30 -180 103 -177 113 1 5
-34 41 -78 82 -44 41 -74 65 -66 54 7 -11 -4 -2 -24 20 -58 62 -95 125 -94
159 l2 31 5 -30 5 -30 8 25 c6 18 7 15 3 -15 -4 -31 -2 -37 7 -25 9 13 10 13
5 -2 -3 -9 3 -27 13 -39 16 -20 18 -21 18 -3 0 10 -6 28 -13 39 -8 11 -14 31
-13 45 1 23 2 22 11 -7 6 -18 15 -33 20 -33 5 0 4 9 -2 19 -5 11 -10 28 -10
38 1 17 2 17 17 -2 13 -16 15 -17 10 -2 -6 15 3 22 26 18 4 0 7 4 7 10 0 5 4
7 10 4 6 -4 7 1 3 11 -4 11 -3 15 4 11 6 -4 14 -1 17 5 4 7 4 3 2 -10 -2 -12
0 -20 5 -16 5 3 9 -1 9 -8 0 -10 2 -10 9 1 7 11 10 10 15 -6 4 -11 18 -31 33
-44 24 -22 23 -20 -6 20 -17 24 -31 51 -32 60 0 12 -3 11 -9 -4 -8 -19 -9 -19
-9 2 -1 12 -7 23 -13 26 -8 3 -6 8 7 13 11 4 26 16 33 26 21 30 52 17 88 -34z
m-25 5 c12 -16 12 -17 -2 -5 -9 7 -25 10 -35 6 -16 -5 -16 -4 -4 5 20 15 25
14 41 -6z m-203 -178 c-3 -3 -9 2 -12 12 -6 14 -5 15 5 6 7 -7 10 -15 7 -18z
m196 -234 c-6 -7 -117 94 -122 110 -3 8 24 -13 60 -46 36 -33 63 -62 62 -64z
m659 42 c-34 -2 -93 -2 -130 0 -37 2 -9 3 62 3 72 0 102 -1 68 -3z"/>
<path d="M1253 2475 c-34 -8 -70 -19 -80 -25 -16 -11 -16 -11 2 -5 19 6 135
30 185 38 18 3 15 4 -10 5 -19 0 -63 -6 -97 -13z"/>
<path d="M1540 2483 c32 -5 170 -34 190 -40 13 -4 13 -3 0 5 -21 14 -153 42
-187 41 -27 -2 -27 -2 -3 -6z"/>
<path d="M1375 2413 c-60 -7 -176 -36 -182 -46 -3 -5 3 -7 13 -3 55 17 154 36
186 36 20 0 40 5 43 10 6 10 -2 10 -60 3z"/>
<path d="M1879 2385 c36 -19 66 -33 68 -31 4 4 -112 66 -123 66 -5 0 20 -16
55 -35z"/>
<path d="M1423 2303 c20 -2 54 -2 75 0 20 2 3 4 -38 4 -41 0 -58 -2 -37 -4z"/>
<path d="M2015 2303 c6 -5 45 -43 89 -83 43 -41 74 -65 68 -53 -13 24 -116
119 -147 135 -11 6 -15 6 -10 1z"/>
<path d="M869 2191 c-46 -43 -82 -81 -79 -84 3 -3 45 33 93 79 48 46 84 84 79
84 -5 0 -47 -36 -93 -79z"/>
<path d="M1037 2253 c-13 -12 -7 -89 8 -111 14 -19 14 -24 0 -51 -8 -17 -15
-48 -15 -71 l0 -41 30 35 c51 57 94 66 332 66 114 0 208 -2 208 -5 0 -6 -220
-448 -226 -454 -2 -2 -10 1 -17 8 -16 13 -117 34 -126 26 -2 -3 5 -12 17 -21
24 -16 49 -60 63 -107 7 -26 -6 -57 -101 -246 -74 -146 -124 -233 -156 -269
-25 -29 -44 -55 -41 -58 11 -11 96 -7 127 6 33 13 38 11 54 -25 4 -9 22 8 29
30 2 6 15 4 33 -5 23 -11 85 -15 302 -16 185 -1 277 -6 286 -13 28 -23 36 51
11 99 -13 25 -13 32 0 64 8 19 15 51 15 71 l0 36 -37 -39 c-23 -24 -54 -44
-78 -51 -36 -10 -455 -17 -455 -7 0 2 39 83 86 179 90 185 125 232 185 244 39
8 37 21 -6 29 -19 3 -35 10 -35 14 0 5 56 122 124 262 84 169 143 277 181 326
l55 72 -54 0 c-30 0 -67 -5 -81 -12 -24 -11 -29 -9 -45 12 l-18 23 -7 -22 c-5
-18 -11 -21 -28 -15 -12 4 -148 10 -303 13 -202 4 -285 10 -296 18 -8 7 -18
10 -21 6z m293 -44 c150 0 250 -3 250 -9 0 -5 7 -7 15 -4 8 3 28 2 43 -4 18
-6 35 -6 45 0 10 5 23 5 33 0 11 -6 32 -5 60 4 24 7 46 10 48 5 3 -4 -16 -36
-40 -72 -25 -35 -55 -83 -66 -106 -11 -24 -24 -43 -29 -43 -5 0 -6 -8 -3 -17
5 -15 4 -15 -4 -3 -9 12 -12 10 -20 -10 -6 -14 -91 -191 -191 -394 -99 -203
-179 -372 -176 -376 2 -4 -1 -21 -7 -38 -11 -27 -10 -35 4 -49 15 -14 44 -17
225 -17 208 -1 263 5 296 32 20 17 23 3 7 -29 -8 -14 -7 -27 5 -48 31 -61 25
-66 -75 -63 -49 2 -90 7 -90 12 0 5 -71 9 -157 9 -114 0 -154 -2 -143 -10 22
-16 -83 -4 -108 12 -17 10 -24 10 -37 -1 -13 -11 -18 -11 -31 2 -13 13 -9 25
38 104 29 49 111 211 184 359 72 149 161 331 198 405 69 139 59 147 -16 12
-23 -42 -110 -216 -193 -387 -182 -373 -234 -474 -235 -458 0 6 97 208 215
450 207 421 290 601 281 610 -2 2 -43 -78 -92 -179 -49 -101 -144 -295 -212
-433 -67 -137 -129 -263 -136 -280 -52 -114 -67 -157 -61 -175 5 -17 -1 -23
-31 -36 -20 -8 -40 -12 -45 -7 -5 5 11 38 35 73 24 36 64 106 89 155 70 139
437 888 437 893 0 2 -6 -1 -14 -7 -10 -8 -16 -8 -24 2 -9 10 -58 12 -234 10
-194 -3 -228 -6 -259 -23 l-36 -18 -1 41 c0 23 -3 59 -7 81 -5 27 -4 37 4 32
6 -4 123 -7 261 -7z m26 -611 c10 -10 10 -18 0 -37 l-14 -25 -21 42 -21 41 22
-4 c12 -3 27 -10 34 -17z m148 -72 c-24 -18 -29 -14 -14 14 9 16 15 19 23 11
8 -8 6 -15 -9 -25z"/>
<path d="M1295 2179 c41 -13 240 -13 262 0 13 8 -24 10 -137 10 -112 -1 -147
-3 -125 -10z"/>
<path d="M1427 1019 c-105 -12 -72 -19 89 -18 96 0 151 4 138 9 -30 12 -160
17 -227 9z"/>
<path d="M2015 2188 c22 -18 67 -57 100 -88 56 -51 57 -52 20 -10 -47 54 -135
130 -149 130 -6 0 7 -15 29 -32z"/>
<path d="M651 2074 c-28 -35 -33 -57 -22 -85 6 -14 10 -17 10 -9 1 9 10 32 20
53 10 20 14 37 9 37 -6 0 -5 6 2 15 7 8 10 15 7 15 -3 0 -15 -12 -26 -26z m-5
-45 c-9 -19 -15 -29 -16 -22 0 15 22 64 27 60 2 -2 -3 -19 -11 -38z"/>
<path d="M2010 1901 c0 -6 4 -13 10 -16 6 -3 7 1 4 9 -7 18 -14 21 -14 7z"/>
<path d="M2027 1275 c-8 -20 5 -26 26 -10 16 11 16 13 1 19 -21 8 -21 8 -27
-9z"/>
<path d="M1995 973 c-92 -88 -91 -93 3 -14 43 36 103 102 90 101 -2 -1 -43
-40 -93 -87z"/>
<path d="M1255 881 c11 -4 36 -11 55 -15 24 -4 29 -3 15 3 -11 4 -36 11 -55
15 -24 4 -29 3 -15 -3z"/>
<path d="M1612 880 c-18 -4 -36 -11 -40 -15 -8 -8 52 3 83 16 25 10 1 10 -43
-1z"/>
<path d="M1413 853 c20 -2 54 -2 75 0 20 2 3 4 -38 4 -41 0 -58 -2 -37 -4z"/>
<path d="M956 808 c7 -10 125 -71 129 -66 2 2 -27 19 -65 39 -38 20 -67 32
-64 27z"/>
<path d="M1635 790 c-38 -10 -89 -19 -112 -19 -24 -1 -43 -6 -43 -11 0 -16
207 19 240 40 22 14 0 12 -85 -10z"/>
<path d="M1180 711 c20 -12 161 -41 197 -40 15 0 -15 9 -68 19 -53 10 -107 21
-120 24 -17 5 -20 4 -9 -3z"/>
<path d="M638 1579 l4 -41 38 5 c20 2 44 1 52 -4 22 -12 48 -1 48 22 0 12 -9
21 -25 25 -14 3 -25 10 -25 15 0 12 27 11 35 -1 4 -7 13 -6 27 1 19 10 20 9
16 -25 -3 -25 0 -36 9 -36 8 0 13 13 13 36 0 33 2 35 17 23 14 -12 16 -12 11
1 -3 11 -21 15 -69 15 -52 0 -64 -3 -67 -17 -2 -12 5 -19 22 -24 14 -3 26 -10
26 -15 0 -13 -34 -11 -48 3 -9 9 -15 9 -24 0 -22 -22 -38 -13 -38 19 0 26 3
31 20 26 11 -3 20 -1 20 4 0 5 -15 9 -33 9 -32 0 -32 -1 -29 -41z"/>
<path d="M2015 1609 c-4 -6 -4 -13 0 -17 4 -4 10 -1 12 6 3 6 9 12 14 12 16 0
10 -23 -13 -47 l-21 -23 31 0 c18 0 32 4 32 10 0 5 -8 7 -17 3 -16 -6 -16 -4
1 15 10 12 16 28 13 37 -7 17 -43 20 -52 4z"/>
<path d="M2092 1608 c-17 -17 -15 -43 4 -63 23 -22 46 -1 42 39 -3 33 -25 45
-46 24z m33 -28 c0 -13 -6 -25 -12 -27 -9 -3 -13 6 -13 27 0 21 4 30 13 28 6
-3 12 -15 12 -28z"/>
<path d="M2169 1611 c9 -6 12 -20 9 -40 -3 -19 0 -31 6 -31 7 0 10 15 8 40 -3
29 -9 40 -21 40 -13 0 -13 -2 -2 -9z"/>
<path d="M2224 1606 c-8 -21 3 -36 27 -36 11 0 17 -5 14 -10 -4 -6 -15 -8 -26
-5 -22 7 -26 -10 -5 -18 24 -10 48 16 44 48 -2 22 -9 31 -26 33 -13 2 -24 -3
-28 -12z m41 -7 c10 -15 -1 -23 -20 -15 -9 3 -13 10 -10 16 8 13 22 13 30 -1z"/>
<path d="M671 1584 c0 -11 3 -14 6 -6 3 7 2 16 -1 19 -3 4 -6 -2 -5 -13z"/>
<path d="M865 1550 c-3 -5 -1 -10 4 -10 6 0 11 5 11 10 0 6 -2 10 -4 10 -3 0
-8 -4 -11 -10z"/>
<path d="M580 723 c0 -13 29 -38 35 -31 3 3 -4 13 -15 23 -11 10 -20 13 -20 8z"/>
<path d="M2296 704 c-11 -7 -17 -16 -15 -19 3 -3 14 2 25 9 10 8 17 17 14 19
-3 3 -14 -1 -24 -9z"/>
<path d="M756 666 c6 -16 -34 -86 -49 -86 -7 0 5 -12 26 -26 24 -16 45 -23 57
-19 30 10 24 22 -8 17 -45 -6 -54 16 -25 61 24 37 25 38 44 21 10 -9 19 -23
19 -31 0 -8 5 -11 10 -8 20 12 9 31 -34 57 -25 15 -43 21 -40 14z"/>
<path d="M2097 644 c-20 -11 -27 -22 -25 -37 3 -22 23 -27 73 -16 15 3 20 -1
20 -16 0 -16 -7 -20 -37 -20 -34 0 -36 -1 -21 -18 15 -16 18 -16 47 1 21 12
31 26 31 43 0 22 -3 24 -47 22 -34 -1 -48 3 -48 12 0 17 35 29 52 19 9 -6 9
-3 -1 9 -7 9 -14 17 -15 17 0 -1 -14 -8 -29 -16z"/>
<path d="M779 611 c-11 -4 -14 -12 -9 -26 7 -19 7 -19 19 4 15 26 12 31 -10
22z"/>
<path d="M907 573 c-15 -14 -6 -43 18 -59 27 -18 34 -44 11 -44 -28 0 -46 12
-46 31 0 10 -4 19 -10 19 -22 0 -8 -37 20 -53 23 -14 34 -15 50 -7 28 15 25
31 -10 65 -17 16 -26 33 -22 37 13 13 43 -2 52 -26 8 -19 9 -19 9 -2 1 31 -52
60 -72 39z"/>
<path d="M1949 568 c-3 -17 -3 -128 1 -128 3 0 12 5 20 10 10 6 11 10 3 10
-20 0 -15 28 6 39 20 11 48 -8 33 -24 -4 -5 1 -5 11 -2 10 4 20 7 23 7 2 0
-16 20 -39 45 -38 39 -55 52 -58 43z m30 -42 c9 -10 8 -15 -4 -20 -10 -4 -15
1 -15 14 0 24 4 25 19 6z"/>
<path d="M1047 523 c-14 -14 -6 -20 19 -15 22 4 25 2 21 -14 -4 -11 -9 -31
-13 -46 -3 -16 -11 -28 -18 -28 -6 0 -4 -5 4 -10 8 -5 22 -9 30 -9 8 0 10 3 4
5 -8 3 -8 17 -1 49 11 47 28 57 47 28 10 -17 11 -17 8 1 -2 15 -48 38 -94 46
0 0 -4 -3 -7 -7z"/>
<path d="M1800 515 c-31 -7 -46 -17 -49 -30 -3 -20 -3 -20 18 -1 25 22 24 23
39 -28 7 -26 8 -44 2 -52 -8 -8 -3 -10 15 -6 28 5 45 22 22 22 -8 0 -17 12
-20 28 -3 15 -9 36 -13 46 -6 16 -4 18 19 14 15 -3 27 -2 27 3 0 15 -15 16
-60 4z"/>
<path d="M1214 439 c-1 -32 -6 -54 -15 -60 -10 -6 -7 -9 11 -9 23 0 25 4 26
46 1 26 7 50 14 54 8 5 7 9 -5 14 -28 10 -30 8 -31 -45z"/>
<path d="M1611 466 c-19 -23 -6 -46 26 -46 15 0 35 -5 43 -10 13 -8 13 -12 -3
-27 -17 -17 -19 -17 -47 -1 -30 17 -30 17 -20 -2 14 -26 61 -26 84 -1 24 26
10 49 -35 56 -21 4 -39 11 -39 16 0 16 27 21 50 9 18 -10 21 -9 18 2 -7 19
-62 22 -77 4z"/>
<path d="M1329 461 c13 -8 10 -55 -5 -95 -7 -17 76 -21 87 -4 16 24 9 29 -16
12 -13 -8 -29 -13 -35 -9 -13 8 -13 61 0 86 9 17 7 19 -17 19 -20 0 -24 -3
-14 -9z"/>
<path d="M1488 458 c16 -16 16 -95 0 -101 -7 -3 -1 -6 13 -6 25 -1 26 0 18 47
-4 28 -3 52 3 60 8 9 4 12 -18 12 -22 0 -25 -3 -16 -12z"/>
</g>
</svg>
