<?xml version="1.0" encoding="utf-8"?>
<svg id="master-artboard" viewBox="0 0 1400 980" version="1.0" xmlns="http://www.w3.org/2000/svg" x="0px" y="0px" width="250px" height="250px" enable-background="new 0 0 1400 980">

<path d="M 947.660027 635.789978 A 123.661003 19.336 0 0 1 823.999023 655.125978 A 123.661003 19.336 0 0 1 700.33802 635.789978 A 123.661003 19.336 0 0 1 823.999023 616.453978 A 123.661003 19.336 0 0 1 947.660027 635.789978 Z" opacity="0.1" transform="matrix(3.1296117305755615, 0, 0, 3.1296117305755615, -1842.7002541082538, -1100.24473742589)"/><g transform="matrix(3.1296117305755615, 0, 0, 3.1296117305755615, -1842.7002541082538, -1100.24473742589)">
				
					<path d="M 737.335022 463.480988 H 872.659027 V 635.789993 H 737.335022 V 463.480988 Z" fill="#A7A9AC" stroke="#000000" stroke-width="8" stroke-linecap="round" stroke-linejoin="round" stroke-miterlimit="10"/>
				
					<path fill="none" stroke="#000000" stroke-width="8" stroke-linecap="round" stroke-linejoin="round" stroke-miterlimit="10" d="&#10;&#9;&#9;&#9;&#9;&#9;M907.12,544.188c16.712,0,30.259-13.548,30.259-30.26c0-16.71-13.547-30.257-30.259-30.257h-34.461"/>
				
					<path fill="none" stroke="#000000" stroke-width="8" stroke-linecap="round" stroke-linejoin="round" stroke-miterlimit="10" d="&#10;&#9;&#9;&#9;&#9;&#9;M804.452,367.264c-19.332,19.33,17.537,63.131,0,80.67"/>
				
					<path fill="none" stroke="#000000" stroke-width="8" stroke-linecap="round" stroke-linejoin="round" stroke-miterlimit="10" d="&#10;&#9;&#9;&#9;&#9;&#9;M845.675,389.37c-19.332,19.33,17.537,41.026,0,58.564"/>
				
					<path fill="none" stroke="#000000" stroke-width="8" stroke-linecap="round" stroke-linejoin="round" stroke-miterlimit="10" d="&#10;&#9;&#9;&#9;&#9;&#9;M765.217,389.37c-19.332,19.33,17.537,41.026,0,58.564"/>
			</g><path fill="#BA9765" stroke="#000000" stroke-width="8" stroke-linecap="round" stroke-linejoin="round" stroke-miterlimit="10" d="&#10;&#9;&#9;&#9;&#9;M804.997,549.37c0,0-2.263,11.951-23.649,11.951c-32.58,0-25.421-28.026-19.013-32.231c3.792-2.489,7.567-0.728,5.05,4.681&#10;&#9;&#9;&#9;&#9;c-2.801,6.023,5.535,9.185,14.844,1.762c7.635-6.087,18.869-5.409,22.768,2.138c3.899-7.547,15.135-8.226,22.769-2.138&#10;&#9;&#9;&#9;&#9;c9.309,7.423,17.645,4.262,14.844-1.762c-2.517-5.408,1.258-7.169,5.05-4.681c6.408,4.205,13.566,32.231-19.014,32.231&#10;&#9;&#9;&#9;&#9;C807.261,561.32,804.997,549.37,804.997,549.37z" transform="matrix(3.1296117305755615, 0, 0, 3.1296117305755615, -1842.7002541082538, -1100.24473742589)"/>
</svg>